<?xml version="1.0" encoding="utf-8"?>
<!-- Generator: Adobe Illustrator 23.0.0, SVG Export Plug-In . SVG Version: 6.00 Build 0)  -->
<svg version="1.1" id="Layer_1" xmlns="http://www.w3.org/2000/svg" xmlns:xlink="http://www.w3.org/1999/xlink" x="0px" y="0px"
	 viewBox="0 0 24 24" style="enable-background:new 0 0 24 24;" xml:space="preserve">
<style type="text/css">
	.st0{fill:#0FA655;}
</style>
<g id="Edit" transform="translate(0.625 -1.218)">
	<g id="Group_26828" transform="translate(-0.625 1.218)">
		<path id="Path_59369" class="st0" d="M9.7,18.8L19.3,8c1-1.2,0.9-2.9-0.2-4C19,4,19,3.9,19,3.9c-1.2-1-3-0.9-4,0.3l0,0L5.4,15.1
			c-0.1,0.1-0.1,0.2-0.2,0.3L4,19.9c-0.1,0.4,0.1,0.8,0.5,0.9l0,0H5L9.4,19C9.5,19,9.6,18.9,9.7,18.8z M17,4.8
			c0.3,0,0.7,0.1,0.9,0.3c0.5,0.5,0.6,1.3,0.1,1.8l0,0l-0.8,0.9l-2-1.7l0.9-0.9C16.4,5,16.7,4.8,17,4.8L17,4.8z M5.9,18.8L6.6,16
			l7.6-8.7l1.9,1.8l-7.6,8.7L5.9,18.8z"/>
	</g>
</g>
</svg>
