<svg id="Layer_1" data-name="Layer 1" xmlns="http://www.w3.org/2000/svg" viewBox="0 0 24 24"><defs><style>.cls-1{fill:#43425d;}</style></defs><title>ic_Filter</title><path id="Path_59081" data-name="Path 59081" class="cls-1" d="M17.07,7.6a.8.8,0,0,0-.74-.5H7.9a.72.72,0,0,0-.7.45.69.69,0,0,0,.15.84l3.16,3.17v3.08a.77.77,0,0,0,.22.54l1.68,1.68a.69.69,0,0,0,.52.24h0a1,1,0,0,0,.29-.05.74.74,0,0,0,.46-.7V11.56L16.85,8.4A.69.69,0,0,0,17.07,7.6Zm-.67.32L13,11.29v4.64a2.35,2.35,0,0,1,0,.53v.13l-.15-.18L11.2,14.73a.13.13,0,0,1,0-.08V11.29L7.82,7.93V7.82h0a.1.1,0,0,1,.08,0h8.46a.09.09,0,0,1,.08,0v0a.06.06,0,0,1,0,.09Z"/></svg>