<?xml version="1.0" encoding="utf-8"?>
<!-- Generator: Adobe Illustrator 23.0.0, SVG Export Plug-In . SVG Version: 6.00 Build 0)  -->
<svg version="1.1" id="Layer_1" xmlns="http://www.w3.org/2000/svg" xmlns:xlink="http://www.w3.org/1999/xlink" x="0px" y="0px"
	 viewBox="0 0 32 32" style="enable-background:new 0 0 32 32;" xml:space="preserve">
<style type="text/css">
	.st0{fill:#FFFFFF;stroke:#FFFFFF;stroke-width:0.5;}
	.st1{fill:none;}
	.st2{fill:none;stroke:#EEBD00;stroke-width:1.5;}
</style>
<g id="Group_30131" transform="translate(-1434.75 -2989.75)">
	<g id="Group_26678" transform="translate(1431.325 2985.44)">
		<g id="Group_26677">
			<path id="Path_59323" class="st0" d="M29.6,17.2L29.6,17.2l-1.1-0.1c-0.1-0.3-0.2-0.6-0.4-1l0.7-0.8c0.6-0.7,0.6-1.8,0-2.6
				L27,10.9c-0.7-0.6-1.8-0.6-2.6,0l-0.8,0.7c-0.3-0.1-0.6-0.3-1-0.4l-0.1-1.1c-0.1-1-0.8-1.7-1.8-1.8h-2.6c-1,0.1-1.7,0.8-1.8,1.8
				l-0.1,1.1c-0.3,0.1-0.6,0.2-1,0.4l-0.8-0.7c-0.7-0.6-1.8-0.6-2.6,0L10,12.7c-0.6,0.7-0.6,1.8,0,2.6l0.7,0.8
				c-0.1,0.3-0.3,0.6-0.4,1l-1.1,0.1c-1,0.1-1.7,0.8-1.8,1.8v2.6c0.1,1,0.8,1.7,1.8,1.8l1.1,0.1c0.1,0.3,0.2,0.6,0.4,1L10,25.3
				c-0.6,0.7-0.6,1.8,0,2.6l1.8,1.8c0.7,0.6,1.8,0.6,2.6,0l0.8-0.7c0.3,0.2,0.6,0.3,1,0.4l0.1,1.1c0.1,1,0.8,1.7,1.8,1.8h2.6
				c1-0.1,1.7-0.8,1.8-1.8l0.1-1.1c0.3-0.1,0.6-0.2,1-0.4l0.8,0.7c0.7,0.6,1.8,0.6,2.6,0l1.8-1.8c0.6-0.7,0.6-1.8,0-2.6l-0.7-0.8
				c0.1-0.3,0.3-0.6,0.4-1l1-0.1c1-0.1,1.7-0.8,1.8-1.8V19C31.4,18,30.6,17.3,29.6,17.2z M30.5,21.6c-0.1,0.5-0.5,0.9-1,0.9
				l-1.3,0.2c-0.2,0-0.3,0.1-0.4,0.3c-0.1,0.5-0.3,0.9-0.6,1.4c-0.1,0.2-0.1,0.4,0,0.5l0.8,1.1c0.3,0.4,0.4,0.9,0.1,1.3L26.3,29
				c-0.4,0.3-1,0.3-1.3-0.1L24,28.1c-0.1-0.1-0.3-0.1-0.5,0c-0.4,0.2-0.9,0.4-1.4,0.6c-0.2,0.1-0.3,0.2-0.3,0.4l-0.2,1.3
				c0,0.5-0.4,0.9-0.9,1h-2.6c-0.5-0.1-0.9-0.5-0.9-1L17.1,29c0-0.2-0.1-0.3-0.3-0.4c-0.5-0.1-0.9-0.3-1.4-0.6
				c-0.2-0.1-0.4-0.1-0.5,0L13.8,29c-0.4,0.3-0.9,0.4-1.3,0.1l-1.8-1.8c-0.3-0.4-0.3-1,0.1-1.3l0.8-1.1c0.1-0.1,0.1-0.3,0-0.5
				c-0.2-0.4-0.4-0.9-0.6-1.4c-0.1-0.2-0.2-0.3-0.4-0.3l-1.3-0.2c-0.5,0-0.9-0.4-1-0.9V19c0.1-0.5,0.5-0.9,1-0.9l1.3-0.2
				c0.2,0,0.3-0.1,0.4-0.3c0.1-0.5,0.3-0.9,0.6-1.4c0.1-0.2,0.1-0.4,0-0.5l-0.8-1.1c-0.3-0.4-0.4-0.9-0.1-1.3l1.8-1.8
				c0.4-0.3,1-0.3,1.3,0.1l1.1,0.8c0.1,0.1,0.3,0.1,0.5,0c0.4-0.2,0.9-0.4,1.4-0.6c0.2-0.1,0.3-0.2,0.3-0.4l0.2-1.3
				c0-0.5,0.4-0.9,0.9-1h2.6c0.5,0.1,0.9,0.5,0.9,1l0.2,1.3c0,0.2,0.1,0.3,0.3,0.4c0.5,0.1,0.9,0.3,1.4,0.6c0.2,0.1,0.4,0.1,0.5,0
				l1.1-0.8c0.4-0.3,0.9-0.4,1.3-0.1l1.8,1.8c0.3,0.4,0.3,1-0.1,1.3l-0.8,1.1c-0.1,0.1-0.1,0.3,0,0.5c0.2,0.4,0.4,0.9,0.6,1.4
				c0.1,0.2,0.2,0.3,0.4,0.3l1.3,0.2l0,0c0.5,0,0.9,0.4,1,0.9L30.5,21.6z"/>
		</g>
	</g>
	<g id="Ellipse_67" transform="translate(1442 2997)">
		<circle class="st1" cx="8.8" cy="8.8" r="5"/>
		<circle class="st2" cx="8.8" cy="8.8" r="4.3"/>
	</g>
</g>
</svg>
