<svg id="Layer_1" data-name="Layer 1" xmlns="http://www.w3.org/2000/svg" xmlns:xlink="http://www.w3.org/1999/xlink" viewBox="0 0 56 56"><defs><linearGradient id="linear-gradient" x1="-233.74" y1="-156.88" x2="-232.7" y2="-155.77" gradientTransform="translate(13088 8782) scale(56)" gradientUnits="userSpaceOnUse"><stop offset="0" stop-color="#01bbb9"/><stop offset="1" stop-color="#007ee6"/></linearGradient></defs><title>ic_KhoanThu_56</title><g id="Group_33382" data-name="Group 33382"><path id="Rectangle_17420" data-name="Rectangle 17420" d="M10,0H46A10,10,0,0,1,56,10V46A10,10,0,0,1,46,56H10A10,10,0,0,1,0,46V10A10,10,0,0,1,10,0Z" style="fill:url(#linear-gradient)"/><g id="Group_33267" data-name="Group 33267"><path id="Path_4172" data-name="Path 4172" d="M23.31,20.82h9.8a2.43,2.43,0,0,1,2.4,2.39h4.9a7.34,7.34,0,0,0-7.3-7.3h-2.4V11h-4.9v4.89h-2.4a7.3,7.3,0,0,0-.19,14.6h10a2.37,2.37,0,0,1,2.4,2.4,2.43,2.43,0,0,1-2.4,2.4h-9.8a2.43,2.43,0,0,1-2.4-2.4h-4.9a7.34,7.34,0,0,0,7.3,7.3h2.4v4.9h4.9v-4.9h2.4a7.3,7.3,0,0,0,0-14.6h-9.8a2.37,2.37,0,0,1-2.4-2.4,2.42,2.42,0,0,1,2.39-2.39Z" style="fill:#fff"/></g></g></svg>