<svg id="Layer_1" data-name="Layer 1" xmlns="http://www.w3.org/2000/svg" viewBox="0 0 24 24"><defs><style>.cls-1{fill:#7b7b7b;}</style></defs><title>ic_Remove2</title><path class="cls-1" d="M8.8,19.75A2.8,2.8,0,0,1,6,17V7.15a.79.79,0,0,1,.8-.8H17.2a.79.79,0,0,1,.8.8V17a2.82,2.82,0,0,1-2.9,2.8ZM7.5,7.85V17a1.35,1.35,0,0,0,1.4,1.3h6.3A1.32,1.32,0,0,0,16.5,17V7.85Z"/><path class="cls-1" d="M19,7.85H5a.79.79,0,0,1-.8-.8.74.74,0,0,1,.8-.8H19a.8.8,0,1,1,0,1.6Z"/><path class="cls-1" d="M15.7,7.85H8.2a.6.6,0,0,1-.6-.3.88.88,0,0,1-.1-.7l.9-2.1a.75.75,0,0,1,.7-.5h5.7a.75.75,0,0,1,.7.5l.9,2.1a.62.62,0,0,1-.1.7A.71.71,0,0,1,15.7,7.85ZM9.4,6.35h5.2l-.3-.6H9.6Z"/><path class="cls-1" d="M9.3,16.35a.79.79,0,0,1-.8-.8v-5.1a.79.79,0,0,1,.8-.8.74.74,0,0,1,.8.8v5.1A.79.79,0,0,1,9.3,16.35Z"/><path class="cls-1" d="M12,16.35a.79.79,0,0,1-.8-.8v-5.1a.79.79,0,0,1,.8-.8.74.74,0,0,1,.8.8v5.1C12.7,16.05,12.4,16.35,12,16.35Z"/><path class="cls-1" d="M14.6,16.35a.79.79,0,0,1-.8-.8v-5.1a.79.79,0,0,1,.8-.8.74.74,0,0,1,.8.8v5.1C15.3,16.05,15,16.35,14.6,16.35Z"/></svg>